<svg width="38" height="38" viewBox="0 0 38 38" fill="none" xmlns="http://www.w3.org/2000/svg">
<g id="bitcoin-icons:edit-filled">
<path id="Vector" d="M6.32541 27.2445V30.8751C6.32541 31.0851 6.40882 31.2864 6.55728 31.4349C6.70575 31.5833 6.90711 31.6668 7.11708 31.6668H10.7556C10.9651 31.6667 11.1661 31.5836 11.3145 31.4356L26.2738 16.4763L21.5238 11.7263L6.55816 26.6856C6.40959 26.8337 6.32587 27.0347 6.32541 27.2445ZM23.484 9.7645L28.234 14.5145L30.5457 12.2028C30.8425 11.9059 31.0092 11.5033 31.0092 11.0834C31.0092 10.6636 30.8425 10.2609 30.5457 9.964L28.0361 7.45284C27.7392 7.15601 27.3365 6.98926 26.9167 6.98926C26.4968 6.98926 26.0942 7.15601 25.7972 7.45284L23.484 9.7645Z" fill="white"/>
</g>
</svg>
