<svg width="41" height="41" viewBox="0 0 41 41" fill="none" xmlns="http://www.w3.org/2000/svg">
<g id="ic:outline-post-add">
<path id="Vector" d="M28.8333 32.533H8.83333V12.1663H20.5V8.83301H8.83333C7 8.83301 5.5 10.333 5.5 12.1663V32.1663C5.5 33.9997 7 35.4997 8.83333 35.4997H28.8333C30.6667 35.4997 32.1667 33.9997 32.1667 32.1663V20.4997H28.8333V32.533Z" fill="white"/>
<path id="Vector_2" d="M32.1667 3.83301H28.8334V8.83301H23.8334C23.85 8.84967 23.8334 12.1663 23.8334 12.1663H28.8334V17.1497C28.85 17.1663 32.1667 17.1497 32.1667 17.1497V12.1663H37.1667V8.83301H32.1667V3.83301ZM12.1667 15.4997H25.5V18.833H12.1667V15.4997ZM12.1667 20.4997V23.833H25.5V20.4997H20.5H12.1667ZM12.1667 25.4997H25.5V28.833H12.1667V25.4997Z" fill="white"/>
</g>
</svg>
