<svg width="20" height="19" viewBox="0 0 20 19" fill="none" xmlns="http://www.w3.org/2000/svg">
<path id="Vector" d="M14.4866 0.333008C13.4162 0.333008 12.4348 0.690102 11.5697 1.39439C10.7404 2.0696 10.1883 2.92961 9.86321 3.55497C9.53815 2.92957 8.986 2.0696 8.15668 1.39439C7.29165 0.690102 6.31026 0.333008 5.23983 0.333008C2.25266 0.333008 0 2.90523 0 6.31625C0 10.0013 2.81036 12.5226 7.06487 16.3395C7.78735 16.9877 8.60627 17.7224 9.45743 18.506C9.56962 18.6094 9.71372 18.6663 9.86321 18.6663C10.0127 18.6663 10.1568 18.6094 10.269 18.506C11.1202 17.7223 11.9391 16.9876 12.662 16.3391C16.9161 12.5226 19.7264 10.0013 19.7264 6.31625C19.7264 2.90523 17.4738 0.333008 14.4866 0.333008Z" fill="white"/>
</svg>
